# xmcd
#
# Track frame offsets:
#	150
#	22020
#	54492
#	79995
#	98635
#	122697
#	144045
#	167205
#	190840
#	204137
#
# Disc length: 2999 seconds
#
# Revision: 1
# Processed by: cddbd v1.5.2PL0 Copyright (c) Steve Scherf et al.
# Submitted via: audiograbber 1.83.01
#
DISCID=7b0bb50a
DTITLE=Never sy never - A case of the Blues
DYEAR=1992
DGENRE=Blues
TTITLE0=The sun is within you
TTITLE1=Feeling lonely
TTITLE2=Hope it's you
TTITLE3=Sugar bee
TTITLE4=Campin' Blues
TTITLE5=Train
TTITLE6=Ego Blues
TTITLE7=Shrinkin' Blues
TTITLE8=Ain't getting stuck
TTITLE9=Baby don't you love me
EXTD=
EXTT0=
EXTT1=
EXTT2=
EXTT3=
EXTT4=
EXTT5=
EXTT6=
EXTT7=
EXTT8=
EXTT9=
PLAYORDER=
